<?xml version="1.0" standalone="no"?>
<!DOCTYPE svg PUBLIC "-//W3C//DTD SVG 20010904//EN"
 "http://www.w3.org/TR/2001/REC-SVG-20010904/DTD/svg10.dtd">
<svg version="1.0" xmlns="http://www.w3.org/2000/svg"
 width="255.000000pt" height="255.000000pt" viewBox="0 0 255.000000 255.000000"
 preserveAspectRatio="xMidYMid meet">
<metadata>
Created by potrace 1.11, written by Peter Selinger 2001-2013
</metadata>
<g transform="translate(0.000000,255.000000) scale(0.100000,-0.100000)"
fill="#000000" stroke="none">
<path d="M0 2225 c1 -242 4 -325 13 -325 8 0 8 -3 2 -8 -6 -4 -11 -19 -12 -34
-1 -27 -1 -27 33 -13 19 8 34 10 34 6 0 -5 -8 -12 -17 -16 -17 -6 -17 -7 -1
-19 14 -10 15 -15 5 -26 -10 -10 -8 -12 10 -7 16 3 23 1 23 -9 0 -8 10 -14 23
-15 12 0 16 -3 9 -6 -6 -2 -12 -11 -12 -19 0 -8 -4 -14 -10 -14 -5 0 -10 8
-10 17 0 15 -2 14 -16 -3 -15 -18 -15 -18 -10 0 8 23 -26 58 -48 50 -14 -5
-16 -43 -16 -290 l0 -284 38 0 c21 0 47 7 59 15 27 19 49 11 62 -23 9 -25 9
-25 10 -4 1 15 7 22 20 22 10 0 24 7 31 15 11 13 15 13 29 2 11 -9 40 -13 87
-13 53 1 71 -1 67 -10 -3 -9 3 -11 18 -7 17 5 21 3 16 -9 -4 -12 -1 -14 14
-11 15 4 17 9 10 16 -6 6 -10 20 -10 32 1 16 2 17 6 2 2 -9 11 -17 19 -17 8 0
14 -11 15 -27 l1 -28 9 26 c8 21 15 25 34 21 17 -3 31 3 47 21 19 21 34 26 85
29 58 4 65 2 90 -24 26 -27 26 -28 6 -28 -13 0 -24 -8 -28 -20 -8 -24 -22 -25
-47 -3 -12 10 -18 12 -18 4 0 -7 -16 -19 -35 -27 -32 -13 -49 -44 -25 -44 18
0 10 -39 -10 -50 -24 -13 -26 -30 -4 -30 13 0 15 -7 10 -31 -3 -17 -6 -35 -6
-40 0 -5 -11 -9 -24 -9 -40 0 -58 -10 -46 -25 9 -10 6 -16 -10 -25 -19 -10
-19 -13 -5 -33 8 -12 15 -25 15 -29 0 -13 -48 -9 -53 5 -3 9 -9 9 -26 -1 -12
-7 -26 -10 -31 -7 -5 3 -20 -3 -32 -14 -24 -23 -36 -25 -58 -11 -13 9 -13 11
-1 19 8 5 20 7 27 4 6 -2 15 0 19 6 3 6 15 11 26 11 23 0 23 1 5 45 -8 18 -12
36 -9 39 3 3 0 12 -7 21 -9 11 -16 12 -25 5 -6 -5 -15 -7 -19 -3 -10 10 -116
10 -116 0 0 -5 -7 -15 -15 -24 -14 -14 -18 -13 -34 6 -14 16 -21 18 -24 9 -3
-7 -3 6 0 29 5 40 4 42 -22 49 -25 6 -26 8 -12 19 22 16 22 25 0 25 -9 0 -25
8 -35 17 -15 14 -19 14 -16 3 2 -10 -6 -15 -25 -15 -15 0 -32 -7 -37 -15 -13
-20 -11 -281 2 -297 7 -9 7 -13 -1 -13 -6 0 -11 -17 -11 -40 l0 -40 44 0 c25
0 48 -4 51 -10 4 -6 -13 -10 -44 -10 -48 0 -51 -2 -51 -25 0 -14 5 -25 12 -25
9 0 9 -3 0 -12 -7 -7 -12 -25 -12 -40 0 -26 3 -28 40 -28 25 0 40 5 40 13 0 6
5 4 11 -6 8 -13 23 -17 69 -17 32 0 62 5 65 11 5 6 33 9 74 6 53 -3 67 -7 69
-22 2 -9 0 -16 -5 -13 -4 2 -20 10 -35 17 -22 11 -30 12 -43 1 -20 -17 -9 -31
20 -24 12 3 26 1 29 -5 5 -7 15 -7 32 -1 33 13 34 13 34 -5 0 -8 6 -15 13 -15
9 0 8 -3 -2 -9 -7 -5 -11 -13 -7 -19 7 -11 -40 -26 -54 -17 -5 3 -6 13 -3 22
4 11 3 14 -5 9 -7 -4 -12 -13 -12 -21 0 -8 -5 -17 -12 -21 -7 -4 -8 -3 -4 4 5
8 -1 12 -16 13 -23 1 -23 1 2 8 29 8 16 19 -19 16 -27 -2 -39 -19 -21 -30 12
-7 -5 -35 -21 -35 -16 0 -9 18 9 23 12 3 11 5 -6 6 -16 1 -26 -6 -29 -18 -3
-14 -16 -20 -44 -23 -22 -2 -44 1 -49 6 -7 7 -10 6 -10 -2 0 -7 -5 -12 -10
-12 -6 0 -10 8 -8 18 2 9 -3 16 -10 14 -6 -1 -28 -3 -47 -5 -40 -2 -46 -13
-13 -20 l23 -4 -22 -2 c-23 -1 -23 -1 -23 -186 l0 -185 1275 0 1275 0 0 620
c0 544 -2 620 -15 620 -8 0 -15 -5 -15 -11 0 -6 -7 -8 -17 -5 -9 4 -19 2 -23
-4 -8 -12 -69 -31 -110 -34 -14 -1 -29 -4 -35 -7 -5 -3 -26 -6 -45 -8 -19 -2
-39 -7 -45 -11 -11 -9 -107 -45 -164 -62 -19 -5 -55 -25 -79 -44 -25 -19 -48
-34 -52 -34 -4 0 -10 33 -14 73 -4 39 -10 104 -15 142 -4 39 -4 75 0 81 5 6 3
16 -3 22 -9 9 -9 12 0 12 7 0 12 11 12 25 0 18 4 23 15 19 10 -4 15 0 15 15 0
12 5 21 11 21 7 0 9 10 5 25 -5 19 -2 25 9 25 11 0 14 -6 9 -25 -8 -31 9 -33
30 -3 13 18 19 20 40 10 26 -12 69 -5 60 9 -3 5 7 14 21 19 35 13 45 13 45 -2
0 -7 4 -19 9 -27 7 -11 14 -9 35 12 14 14 26 31 26 37 0 16 17 12 58 -13 20
-13 43 -22 51 -19 8 3 20 -3 26 -12 11 -15 13 -14 18 6 6 21 7 21 25 5 26 -24
33 -21 26 9 -6 24 -5 26 17 19 13 -4 27 -12 31 -18 4 -7 12 -6 22 2 13 11 16
40 16 175 0 113 -4 166 -12 174 -9 9 -9 12 0 12 9 0 12 84 12 350 l0 350
-1275 0 -1276 0 1 -325z m270 -25 c0 -5 -5 -10 -11 -10 -5 0 -7 5 -4 10 3 6 8
10 11 10 2 0 4 -4 4 -10z m2020 -10 c0 -5 -7 -10 -16 -10 -8 0 -12 5 -9 10 3
6 10 10 16 10 5 0 9 -4 9 -10z m-2110 -20 c0 -5 -2 -10 -4 -10 -3 0 -8 5 -11
10 -3 6 -1 10 4 10 6 0 11 -4 11 -10z m1904 -16 c9 -3 16 -10 16 -14 0 -12
-33 -5 -38 8 -4 14 0 15 22 6z m-1387 -10 c-3 -3 -12 -4 -19 -1 -8 3 -5 6 6 6
11 1 17 -2 13 -5z m1653 -74 c0 -5 -5 -10 -11 -10 -5 0 -7 5 -4 10 3 6 8 10
11 10 2 0 4 -4 4 -10z m-1682 -12 c-3 -7 -11 -13 -19 -13 -8 -1 -13 -6 -11
-13 1 -7 -2 -12 -8 -12 -19 0 -10 31 13 40 30 12 29 12 25 -2z m1337 -8 c3 -5
1 -10 -4 -10 -6 0 -11 5 -11 10 0 6 2 10 4 10 3 0 8 -4 11 -10z m-1875 -4 c0
-3 -4 -8 -10 -11 -5 -3 -10 -1 -10 4 0 6 5 11 10 11 6 0 10 -2 10 -4z m734 -2
c17 -7 10 -34 -9 -34 -7 0 -15 9 -18 20 -5 21 1 24 27 14z m-774 -34 c0 -5 -4
-10 -10 -10 -5 0 -10 5 -10 10 0 6 5 10 10 10 6 0 10 -4 10 -10z m1835 0 c-3
-5 -10 -10 -16 -10 -5 0 -9 5 -9 10 0 6 7 10 16 10 8 0 12 -4 9 -10z m-1365
-20 c0 -4 -11 -7 -25 -6 -27 1 -33 11 -12 19 15 5 37 -2 37 -13z m-475 -9 c3
-5 1 -12 -5 -16 -5 -3 -10 1 -10 9 0 18 6 21 15 7z m90 -1 c-3 -5 -13 -10 -21
-10 -8 0 -12 5 -9 10 3 6 13 10 21 10 8 0 12 -4 9 -10z m460 -5 c-16 -7 -34
-10 -40 -7 -5 3 1 9 15 13 42 12 57 8 25 -6z m1685 -5 c0 -5 -4 -10 -10 -10
-5 0 -10 5 -10 10 0 6 5 10 10 10 6 0 10 -4 10 -10z m-395 -10 c3 -5 1 -10 -4
-10 -6 0 -11 5 -11 10 0 6 2 10 4 10 3 0 8 -4 11 -10z m-637 -27 c2 -7 -1 -13
-8 -13 -6 0 -8 5 -5 10 3 6 1 10 -4 10 -6 0 -11 -5 -11 -11 0 -5 -4 -7 -10 -4
-17 11 -11 22 12 21 12 0 23 -7 26 -13z m-759 -9 c2 -2 -5 -11 -15 -21 -16
-16 -17 -16 -11 -1 4 11 0 21 -11 28 -14 9 -12 10 8 4 14 -3 27 -8 29 -10z
m1618 10 c-3 -3 -12 -4 -19 -1 -8 3 -5 6 6 6 11 1 17 -2 13 -5z m193 -4 c0 -5
-4 -10 -10 -10 -5 0 -10 5 -10 10 0 6 5 10 10 10 6 0 10 -4 10 -10z m-1963 -6
c-3 -3 -12 -4 -19 -1 -8 3 -5 6 6 6 11 1 17 -2 13 -5z m1583 -4 c0 -5 -2 -10
-4 -10 -3 0 -8 5 -11 10 -3 6 -1 10 4 10 6 0 11 -4 11 -10z m300 -26 c0 -13 5
-15 43 -18 17 -1 40 -34 32 -46 -3 -6 -2 -10 4 -10 5 0 11 6 14 13 2 6 7 10
10 7 4 -3 0 -18 -8 -34 -14 -26 -13 -27 5 -21 11 4 20 2 20 -3 0 -12 -29 -24
-40 -17 -5 3 -11 1 -15 -5 -3 -6 -15 0 -28 14 -12 12 -29 26 -37 29 -11 4 -11
6 4 6 12 1 16 6 12 17 -4 9 -1 23 6 32 11 13 10 14 -9 4 -19 -10 -24 -9 -33 7
-7 14 -7 22 0 26 8 5 7 12 -2 23 -12 15 -11 16 5 3 9 -7 17 -20 17 -27z
m-2100 16 c0 -5 -7 -10 -15 -10 -8 0 -15 5 -15 10 0 6 7 10 15 10 8 0 15 -4
15 -10z m1955 0 c3 -5 1 -10 -4 -10 -6 0 -11 -4 -11 -10 0 -5 11 -10 25 -10
14 0 25 -4 25 -10 0 -5 -13 -10 -28 -10 -21 0 -32 7 -40 24 -6 13 -8 27 -5 30
10 9 31 7 38 -4z m250 0 c-3 -5 -12 -10 -18 -10 -7 0 -6 4 3 10 19 12 23 12
15 0z m-1505 -30 c0 -5 -2 -10 -4 -10 -3 0 -8 5 -11 10 -3 6 -1 10 4 10 6 0
11 -4 11 -10z m1081 -16 c4 -10 8 -14 8 -7 1 7 8 10 16 6 9 -3 13 -8 11 -11
-3 -3 -1 -11 4 -17 8 -9 4 -14 -15 -19 -16 -4 -27 -16 -31 -33 -7 -25 -8 -25
-14 -8 -4 11 -3 26 2 32 7 9 6 14 -4 18 -7 3 -15 19 -16 34 -2 22 2 29 15 27
9 -2 20 -11 24 -22z m-1538 1 c-3 -9 -8 -14 -10 -11 -3 3 -2 9 2 15 9 16 15
13 8 -4z m67 -10 c0 -8 -9 -15 -20 -15 -11 0 -20 7 -20 15 0 8 9 15 20 15 11
0 20 -7 20 -15z m184 -48 c-1 -18 -3 -35 -3 -39 -1 -12 -51 -5 -61 8 -6 7 -1
22 15 44 13 18 21 38 18 44 -4 6 3 3 14 -7 15 -13 20 -27 17 -50z m1723 57
c-3 -3 -12 -4 -19 -1 -8 3 -5 6 6 6 11 1 17 -2 13 -5z m-2021 -31 c-10 -10
-19 5 -10 18 6 11 8 11 12 0 2 -7 1 -15 -2 -18z m190 -20 c-7 -7 -26 7 -26 19
0 6 6 6 15 -2 9 -7 13 -15 11 -17z m772 15 c-2 -6 -10 -14 -16 -16 -7 -2 -10
2 -6 12 7 18 28 22 22 4z m727 -8 c-3 -5 -12 -10 -18 -10 -7 0 -6 4 3 10 19
12 23 12 15 0z m55 -16 c13 -33 13 -33 -10 -31 -12 1 -18 7 -16 14 3 7 1 13
-4 13 -5 0 -7 7 -4 15 9 23 23 18 34 -11z m-1613 -21 c-3 -3 -11 -2 -17 2 -8
5 -7 11 2 22 12 15 13 14 16 -1 2 -10 1 -20 -1 -23z m30 -2 c-3 -16 -1 -33 6
-40 9 -9 4 -10 -18 -7 -46 5 -65 16 -65 37 0 19 1 19 23 -1 18 -18 23 -19 25
-6 2 9 8 16 13 16 5 0 8 3 8 8 -2 13 1 22 7 22 4 0 4 -13 1 -29z m43 10 c0 -5
-7 -11 -14 -14 -10 -4 -13 -1 -9 9 6 15 23 19 23 5z m560 -1 c0 -5 -4 -10 -10
-10 -5 0 -10 5 -10 10 0 6 5 10 10 10 6 0 10 -4 10 -10z m900 -4 c0 -8 -4 -17
-8 -20 -4 -2 -8 4 -8 15 0 10 4 19 8 19 4 0 8 -6 8 -14z m-1730 -11 c-10 -12
-7 -15 14 -21 14 -3 23 -10 20 -15 -9 -16 -33 -10 -44 11 -12 22 -6 40 12 40
7 0 6 -5 -2 -15z m672 -7 c-7 -7 -12 -8 -12 -2 0 14 12 26 19 19 2 -3 -1 -11
-7 -17z m98 -9 c-7 -11 -14 -18 -17 -15 -8 8 5 36 17 36 7 0 7 -6 0 -21z m210
1 c0 -5 -8 -10 -17 -10 -15 0 -16 2 -3 10 19 12 20 12 20 0z m-1090 -10 c0 -5
-4 -10 -10 -10 -5 0 -10 5 -10 10 0 6 5 10 10 10 6 0 10 -4 10 -10z m45 -1
c-7 -11 -35 -12 -35 -1 0 4 9 8 20 9 11 1 18 -2 15 -8z m2208 -22 c16 -17 20
-37 7 -37 -5 0 -10 5 -10 10 0 6 -6 10 -14 10 -16 0 -46 26 -46 40 0 12 47 -6
63 -23z m-1343 13 c0 -5 -4 -10 -10 -10 -5 0 -10 5 -10 10 0 6 5 10 10 10 6 0
10 -4 10 -10z m827 -12 c-3 -8 -6 -5 -6 6 -1 11 2 17 5 13 3 -3 4 -12 1 -19z
m-1647 -42 c-16 -16 -48 -17 -54 0 -5 13 0 14 27 9 l32 -6 -25 21 c-16 13 -18
18 -7 14 11 -4 17 -1 18 7 0 8 5 3 10 -10 6 -16 6 -28 -1 -35z m380 44 c0 -5
-9 -10 -19 -10 -11 0 -23 5 -26 10 -4 6 5 10 19 10 14 0 26 -4 26 -10z m580
-6 c0 -8 -4 -12 -10 -9 -5 3 -10 10 -10 16 0 5 5 9 10 9 6 0 10 -7 10 -16z
m790 6 c0 -5 -4 -10 -10 -10 -5 0 -10 5 -10 10 0 6 5 10 10 10 6 0 10 -4 10
-10z m500 1 c0 -5 -13 -11 -30 -13 -29 -4 -37 1 -23 15 10 10 53 8 53 -2z
m-2316 -41 c-19 -38 -31 -45 -49 -30 -21 18 -18 27 10 34 14 4 28 13 31 21 4
8 10 13 14 10 5 -3 2 -19 -6 -35z m646 28 c0 -6 7 -20 17 -30 9 -10 11 -18 5
-18 -6 0 -14 5 -17 10 -9 15 -34 12 -51 -5 -16 -16 -40 -11 -48 11 -4 9 6 19
27 28 40 18 67 20 67 4z m440 2 c0 -5 -5 -10 -11 -10 -5 0 -7 5 -4 10 3 6 8
10 11 10 2 0 4 -4 4 -10z m80 0 c0 -5 -5 -10 -11 -10 -5 0 -7 5 -4 10 3 6 8
10 11 10 2 0 4 -4 4 -10z m-355 -10 c-3 -5 -11 -10 -16 -10 -6 0 -7 5 -4 10 3
6 11 10 16 10 6 0 7 -4 4 -10z m-375 -4 c0 -9 -30 -14 -35 -6 -4 6 3 10 14 10
12 0 21 -2 21 -4z m47 -25 c-4 -17 -1 -19 30 -15 29 3 34 1 31 -13 -3 -12 -12
-17 -27 -15 -18 2 -21 -2 -16 -18 4 -11 2 -20 -4 -20 -6 0 -11 -7 -11 -15 0
-8 7 -15 16 -15 10 0 14 6 11 15 -4 8 -2 17 3 20 6 4 10 2 10 -4 0 -5 23 -17
50 -26 28 -9 50 -20 50 -23 -1 -14 -41 -55 -47 -49 -3 4 -13 1 -21 -6 -12 -9
-16 -9 -19 1 -3 6 -12 12 -21 12 -13 0 -14 -2 -4 -9 20 -12 -27 -23 -47 -11
-14 8 -14 9 1 10 27 0 27 24 -1 37 -20 9 -22 12 -8 12 26 1 16 24 -14 31 -17
4 -25 14 -27 33 -3 24 0 27 24 27 20 0 25 3 17 11 -8 8 -6 16 6 29 21 24 24
24 18 1z m693 4 c0 -8 -7 -15 -15 -15 -9 0 -12 6 -9 15 4 8 10 15 15 15 5 0 9
-7 9 -15z m1020 6 c0 -5 -7 -14 -15 -21 -16 -14 -18 -10 -9 14 6 17 24 22 24
7z m-296 -17 c9 -22 -3 -32 -14 -14 -12 19 -12 30 -1 30 5 0 12 -7 15 -16z
m-1804 -24 c0 -5 -5 -10 -11 -10 -5 0 -7 5 -4 10 3 6 8 10 11 10 2 0 4 -4 4
-10z m100 2 c0 -4 -7 -17 -15 -28 -8 -12 -11 -24 -8 -28 3 -3 1 -6 -5 -6 -19
0 -23 17 -7 30 12 10 13 16 4 26 -9 11 -7 14 10 14 11 0 21 -3 21 -8z m126
-39 c-10 -10 -19 5 -10 18 6 11 8 11 12 0 2 -7 1 -15 -2 -18z m741 -15 c-3 -8
-6 -5 -6 6 -1 11 2 17 5 13 3 -3 4 -12 1 -19z m-862 -26 c-22 -5 -27 1 -19 23
7 17 8 17 21 -1 12 -17 12 -19 -2 -22z m684 16 c22 -61 24 -71 8 -65 -10 4
-17 -2 -20 -15 -5 -16 -2 -19 14 -15 16 4 19 2 14 -14 -5 -14 -3 -17 9 -13 9
3 16 12 16 20 0 8 5 14 10 14 6 0 10 -7 10 -15 0 -8 5 -15 10 -15 6 0 10 -4
10 -9 0 -17 -42 -23 -67 -10 -30 16 -45 -1 -36 -43 3 -15 3 -28 0 -28 -17 0
-37 14 -37 27 0 8 5 11 11 7 6 -3 3 5 -6 20 -10 15 -13 26 -6 26 6 0 11 -5 11
-12 0 -6 3 -8 6 -5 4 4 1 13 -5 21 -7 8 -10 24 -6 36 5 15 2 20 -12 20 -19 -1
-53 -22 -53 -34 0 -4 9 -4 20 -1 22 7 25 -1 10 -25 -8 -12 -13 -13 -29 -3 -17
11 -22 10 -30 -5 -6 -9 -11 -12 -11 -4 0 17 -99 17 -106 -1 -3 -8 -11 -14 -18
-14 -8 0 -12 6 -9 14 3 8 -2 13 -12 13 -12 0 -15 -5 -10 -20 5 -14 2 -20 -9
-20 -19 0 -19 1 -6 34 5 14 16 26 25 26 8 0 15 4 15 9 0 12 40 21 67 15 15 -4
20 -11 15 -22 -5 -14 -3 -15 10 -5 8 7 18 9 23 5 4 -4 6 2 3 14 -4 17 -1 20
17 16 27 -5 68 15 60 29 -4 5 2 10 12 10 17 1 17 1 0 6 -28 7 -14 28 21 31 18
2 32 7 32 13 0 18 21 9 29 -13z m-220 -21 c12 -15 12 -17 -3 -11 -9 3 -16 13
-16 22 0 8 1 13 3 11 1 -2 9 -12 16 -22z m-509 3 c0 -5 -4 -10 -10 -10 -5 0
-10 5 -10 10 0 6 5 10 10 10 6 0 10 -4 10 -10z m510 -40 c0 -5 -5 -10 -11 -10
-5 0 -7 5 -4 10 3 6 8 10 11 10 2 0 4 -4 4 -10z m625 -60 c3 -5 1 -10 -4 -10
-6 0 -11 5 -11 10 0 6 2 10 4 10 3 0 8 -4 11 -10z m465 -16 c0 -21 -27 -47
-35 -34 -3 5 -1 10 4 10 6 0 11 9 11 20 0 11 5 20 10 20 6 0 10 -7 10 -16z
m-1296 -40 c9 -22 -3 -32 -14 -14 -7 11 -10 12 -10 2 0 -7 -4 -11 -10 -7 -12
8 -1 35 15 35 7 0 16 -7 19 -16z m136 -34 c0 -4 -7 -10 -15 -14 -10 -4 -15 1
-15 14 0 13 5 18 15 14 8 -4 15 -10 15 -14z m578 -164 c-4 -18 -1 -23 10 -18
10 4 13 1 8 -7 -6 -8 -2 -11 10 -9 15 2 20 -6 25 -42 8 -47 -14 -230 -32 -278
l-10 -26 -18 39 c-19 42 -46 71 -84 89 -17 9 -23 23 -27 61 -4 43 -10 53 -40
73 -26 18 -44 22 -68 18 -43 -7 -56 -18 -82 -71 -24 -50 -41 -50 -59 0 -7 22
-19 35 -29 35 -10 0 -25 9 -35 20 -10 12 -21 18 -26 16 -5 -3 -26 -8 -47 -12
-22 -3 -43 -10 -48 -15 -6 -5 -18 -9 -27 -9 -10 0 -21 -9 -24 -20 -7 -21 -35
-28 -35 -9 0 5 14 22 30 38 23 20 31 37 33 68 3 48 10 58 33 49 13 -5 14 -9 4
-21 -7 -8 -8 -15 -2 -15 5 0 25 -3 43 -6 32 -6 33 -6 14 9 -11 9 -15 17 -8 17
6 0 18 -9 26 -20 12 -17 16 -18 26 -6 7 8 25 12 44 11 17 -2 37 1 42 5 23 17
62 19 84 4 21 -15 22 -15 19 2 -2 14 3 19 20 18 12 0 22 5 22 13 0 15 16 17
25 3 3 -5 11 -7 18 -4 16 6 69 -20 60 -29 -3 -4 6 -7 21 -7 16 0 25 4 21 10
-4 7 2 9 18 5 20 -5 26 -2 31 19 8 33 20 34 14 2z m32 8 c0 -8 -5 -12 -10 -9
-6 4 -8 11 -5 16 9 14 15 11 15 -7z m67 -126 c-3 -8 -6 -5 -6 6 -1 11 2 17 5
13 3 -3 4 -12 1 -19z m-1337 -72 c0 -11 -19 -15 -25 -6 -3 5 1 10 9 10 9 0 16
-2 16 -4z m560 -21 c0 -8 -4 -15 -10 -15 -5 0 -10 7 -10 15 0 8 5 15 10 15 6
0 10 -7 10 -15z m780 -45 c0 -5 -4 -10 -10 -10 -5 0 -10 5 -10 10 0 6 5 10 10
10 6 0 10 -4 10 -10z m-323 -48 c12 -7 30 -9 40 -6 14 5 12 1 -7 -18 l-25 -24
-32 20 c-18 12 -32 26 -33 33 0 13 23 23 30 13 3 -4 15 -12 27 -18z m-100 -22
c2 -18 0 -18 -13 -6 -17 18 -18 26 -1 26 7 0 13 -9 14 -20z m-947 -10 c-19
-13 -30 -13 -30 0 0 6 10 10 23 10 18 0 19 -2 7 -10z m260 0 c0 -5 -5 -10 -11
-10 -5 0 -7 5 -4 10 3 6 8 10 11 10 2 0 4 -4 4 -10z m550 -9 c0 -5 -7 -17 -16
-25 -16 -17 -28 -21 -21 -8 2 4 7 15 10 25 7 18 27 24 27 8z m-870 -11 c0 -5
-4 -10 -10 -10 -5 0 -10 5 -10 10 0 6 5 10 10 10 6 0 10 -4 10 -10z m80 -6 c0
-11 -6 -13 -19 -9 -13 4 -23 0 -30 -12 -10 -16 -10 -16 -11 4 0 20 5 23 53 32
4 0 7 -6 7 -15z m937 -8 c-4 -10 -1 -13 9 -9 10 4 12 0 8 -11 -7 -19 -18 -20
-33 -3 -8 10 -7 17 1 25 16 16 21 15 15 -2z m-572 -36 c3 -5 1 -10 -4 -10 -6
0 -11 5 -11 10 0 6 2 10 4 10 3 0 8 -4 11 -10z m418 -30 c7 0 6 4 -3 10 -8 5
-10 10 -5 10 6 0 17 -5 25 -11 11 -8 12 -12 3 -16 -20 -8 -15 -23 5 -16 15 6
15 5 4 -10 -10 -12 -19 -13 -35 -6 -12 5 -30 12 -39 15 -23 8 -23 30 -1 43 13
7 20 6 26 -5 4 -8 13 -14 20 -14z m-173 0 c0 -5 -5 -10 -11 -10 -5 0 -7 5 -4
10 3 6 8 10 11 10 2 0 4 -4 4 -10z m60 0 c0 -5 -2 -10 -4 -10 -3 0 -8 5 -11
10 -3 6 -1 10 4 10 6 0 11 -4 11 -10z m-250 -10 c0 -13 -70 -42 -87 -36 -7 3
-13 13 -13 22 0 12 6 15 23 11 12 -4 29 -2 37 3 20 13 40 13 40 0z m105 0
c-11 -5 -38 -8 -60 -8 -34 0 -36 1 -15 8 14 4 41 8 60 8 28 1 31 -1 15 -8z
m-432 -7 c-7 -2 -21 -2 -30 0 -10 3 -4 5 12 5 17 0 24 -2 18 -5z m77 -3 c0
-13 -30 -13 -50 0 -11 7 -7 10 18 10 17 0 32 -4 32 -10z m-180 -26 c0 -2 -10
0 -22 7 -18 9 -20 9 -15 -4 4 -10 -2 -17 -20 -22 -31 -7 -56 11 -27 20 10 4
26 10 34 15 14 7 50 -4 50 -16z m270 6 c-19 -12 -30 -12 -30 -1 0 10 31 20 40
14 2 -2 -2 -8 -10 -13z m430 4 c0 -2 -15 -4 -32 -3 -27 0 -29 2 -13 8 18 8 45
4 45 -5z m-485 -4 c3 -6 -4 -10 -17 -10 -18 0 -20 2 -8 10 19 12 18 12 25 0z
m530 0 c3 -5 -3 -10 -14 -10 -12 0 -21 5 -21 10 0 6 6 10 14 10 8 0 18 -4 21
-10z m-478 -76 c-3 -3 -12 -4 -19 -1 -8 3 -5 6 6 6 11 1 17 -2 13 -5z m240
-10 c-3 -3 -12 -4 -19 -1 -8 3 -5 6 6 6 11 1 17 -2 13 -5z m263 -10 c0 -17
-78 -70 -88 -59 -3 3 -11 0 -17 -5 -9 -8 -15 -6 -19 6 -4 10 1 22 11 30 15 11
15 14 3 14 -10 1 -9 4 5 10 23 10 105 13 105 4z m-790 -13 c0 -13 -25 -20 -40
-11 -10 6 -8 9 6 13 31 8 34 7 34 -2z m495 -31 c3 -5 -1 -10 -9 -10 -9 0 -16
5 -16 10 0 6 4 10 9 10 6 0 13 -4 16 -10z m-55 -15 c0 -8 -4 -15 -10 -15 -5 0
-7 7 -4 15 4 8 8 15 10 15 2 0 4 -7 4 -15z m58 -41 c13 -13 16 -34 6 -34 -7 0
-54 48 -54 55 0 7 34 -8 48 -21z m77 -11 c-1 -18 0 -33 2 -33 13 0 63 32 63
40 0 6 8 10 18 10 15 -1 15 -2 2 -13 -9 -7 -14 -19 -13 -27 3 -15 -1 -16 -84
-23 -17 -1 -35 -5 -39 -9 -12 -13 -24 -9 -24 7 0 9 7 18 15 21 18 7 20 35 4
51 -9 9 -3 11 24 10 33 -2 35 -4 32 -34z m-186 10 c0 -11 -3 -13 -6 -5 -7 17
-38 15 -54 -5 -11 -13 -11 -15 -1 -9 15 9 78 -18 84 -36 6 -18 -22 -69 -33
-62 -5 3 -8 13 -5 22 3 10 -1 27 -8 40 -11 21 -14 22 -25 8 -8 -9 -16 -16 -20
-16 -9 0 -33 58 -28 67 3 5 26 9 51 11 38 2 46 -1 45 -15z m76 -27 c8 3 15 2
15 -4 0 -6 3 -18 7 -28 5 -14 2 -16 -15 -12 -12 4 -22 2 -22 -3 0 -5 -4 -9 -9
-9 -13 0 -23 48 -15 73 l7 22 8 -22 c5 -15 14 -21 24 -17z m435 -26 c0 -5 -5
-10 -11 -10 -5 0 -7 5 -4 10 3 6 8 10 11 10 2 0 4 -4 4 -10z m-560 -50 c0 -5
-4 -10 -10 -10 -5 0 -10 5 -10 10 0 6 5 10 10 10 6 0 10 -4 10 -10z m495 -30
c-3 -5 -13 -10 -21 -10 -8 0 -12 5 -9 10 3 6 13 10 21 10 8 0 12 -4 9 -10z
m142 4 c-3 -3 -12 -4 -19 -1 -8 3 -5 6 6 6 11 1 17 -2 13 -5z m-202 -14 c-3
-5 -10 -10 -16 -10 -5 0 -9 5 -9 10 0 6 7 10 16 10 8 0 12 -4 9 -10z m5 -90
c0 -5 -4 -10 -10 -10 -5 0 -10 5 -10 10 0 6 5 10 10 10 6 0 10 -4 10 -10z
m-220 -100 c0 -5 -4 -10 -10 -10 -5 0 -10 5 -10 10 0 6 5 10 10 10 6 0 10 -4
10 -10z"/>
<path d="M2290 1824 c0 -8 5 -12 10 -9 6 3 10 10 10 16 0 5 -4 9 -10 9 -5 0
-10 -7 -10 -16z"/>
<path d="M620 1821 c0 -5 -3 -16 -6 -25 -4 -11 -1 -16 10 -16 10 0 16 9 16 25
0 14 -4 25 -10 25 -5 0 -10 -4 -10 -9z"/>
<path d="M725 1550 c-3 -5 1 -10 9 -10 9 0 16 5 16 10 0 6 -4 10 -9 10 -6 0
-13 -4 -16 -10z"/>
<path d="M1235 1180 c3 -5 8 -10 11 -10 2 0 4 5 4 10 0 6 -5 10 -11 10 -5 0
-7 -4 -4 -10z"/>
<path d="M2055 1440 c-3 -6 1 -13 10 -16 19 -8 30 0 20 15 -8 14 -22 14 -30 1z"/>
<path d="M2046 1341 c-4 -5 -2 -12 3 -15 5 -4 12 -2 15 3 4 5 2 12 -3 15 -5 4
-12 2 -15 -3z"/>
<path d="M2128 1343 c6 -2 18 -2 25 0 6 3 1 5 -13 5 -14 0 -19 -2 -12 -5z"/>
<path d="M2123 1313 c9 -2 23 -2 30 0 6 3 -1 5 -18 5 -16 0 -22 -2 -12 -5z"/>
<path d="M552 1050 c0 -14 2 -19 5 -12 2 6 2 18 0 25 -3 6 -5 1 -5 -13z"/>
<path d="M320 1000 c0 -5 5 -10 10 -10 6 0 10 5 10 10 0 6 -4 10 -10 10 -5 0
-10 -4 -10 -10z"/>
<path d="M510 1001 c0 -10 19 -25 25 -20 1 2 -3 10 -11 17 -8 7 -14 8 -14 3z"/>
<path d="M240 520 c0 -5 5 -10 11 -10 5 0 7 5 4 10 -3 6 -8 10 -11 10 -2 0 -4
-4 -4 -10z"/>
<path d="M35 439 c-11 -17 0 -20 21 -4 17 13 17 14 2 15 -9 0 -20 -5 -23 -11z"/>
</g>
</svg>
